<svg width="74" height="50" viewBox="0 0 74 50" fill="none" xmlns="http://www.w3.org/2000/svg">
<g clip-path="url(#clip0_72_179)">
<path d="M16.9014 4.15063C16.6284 3.91332 16.2838 3.71798 15.8904 3.57759C15.4971 3.43719 15.064 3.35495 14.62 3.33633C14.176 3.31771 13.7312 3.36313 13.3152 3.46958C12.8992 3.57604 12.5214 3.74108 12.2071 3.95376L7.42481 7.18813C5.19094 8.70063 4.36769 10.8413 5.34356 12.7194C9.39386 20.4931 15.9824 27.5509 24.6206 33.3694C33.232 39.2059 43.6775 43.6576 55.1826 46.3944C57.9622 47.0538 61.1303 46.4975 63.3688 44.9881L68.1511 41.7569C68.4658 41.5445 68.7101 41.2892 68.8676 41.0081C69.0252 40.7271 69.0924 40.4265 69.0649 40.1265C69.0373 39.8265 68.9156 39.5339 68.7078 39.2681C68.5 39.0024 68.2109 38.7695 67.8597 38.585L57.1898 32.9788C56.8146 32.7821 56.3782 32.6456 55.9135 32.5796C55.4488 32.5135 54.968 32.5197 54.5073 32.5975L44.3786 34.3069C43.0266 34.5352 41.6101 34.5231 40.2671 34.2717C38.9241 34.0204 37.7004 33.5383 36.7149 32.8725L25.3559 25.1944C24.3697 24.5289 23.6554 23.7021 23.2826 22.7947C22.9098 21.8872 22.8911 20.93 23.2284 20.0163L25.7629 13.1725C25.8781 12.8612 25.8872 12.5364 25.7895 12.2224C25.6917 11.9084 25.4897 11.6135 25.1987 11.36L16.9014 4.15063ZM8.71519 1.59751C9.52454 1.05047 10.4969 0.626039 11.5676 0.352386C12.6383 0.0787322 13.783 -0.0378782 14.9256 0.0102977C16.0681 0.0584736 17.1824 0.270333 18.1945 0.631809C19.2066 0.993285 20.0933 1.49611 20.7957 2.10688L29.0929 9.31313C30.6146 10.635 31.1511 12.3569 30.5498 13.9819L28.0199 20.8256C27.8891 21.1801 27.8962 21.5514 28.0405 21.9035C28.1847 22.2556 28.4612 22.5765 28.8432 22.835L40.2068 30.5131C40.5899 30.7717 41.0656 30.9589 41.5876 31.0564C42.1096 31.1539 42.66 31.1583 43.1853 31.0694L53.3094 29.36C54.4963 29.1595 55.7351 29.1439 56.9321 29.3145C58.1292 29.485 59.2532 29.8372 60.2192 30.3444L70.8844 35.9506C74.7186 37.9663 75.0701 41.7944 71.6383 44.11L66.8561 47.3413C63.4336 49.6538 58.3183 50.6694 53.5499 49.535C41.3454 46.6335 30.2643 41.9126 21.1287 35.7225C11.9679 29.5507 4.981 22.0646 0.68619 13.8194C-0.98806 10.6006 0.515065 7.14126 3.93756 4.82876L8.71981 1.59751H8.71519Z" fill="black"/>
</g>
<defs>
<clipPath id="clip0_72_179">
<rect width="74" height="50" fill="white"/>
</clipPath>
</defs>
</svg>
