<svg width="82" height="50" viewBox="0 0 82 50" fill="none" xmlns="http://www.w3.org/2000/svg">
<path d="M1 6.96873C1 5.38573 1.84285 3.86756 3.34315 2.7482C4.84344 1.62885 6.87827 1 9 1H73C75.1217 1 77.1566 1.62885 78.6569 2.7482C80.1571 3.86756 81 5.38573 81 6.96873V42.7811C81 44.3642 80.1571 45.8823 78.6569 47.0017C77.1566 48.121 75.1217 48.7499 73 48.7499H9C6.87827 48.7499 4.84344 48.121 3.34315 47.0017C1.84285 45.8823 1 44.3642 1 42.7811V6.96873Z" stroke="black" stroke-width="2" stroke-linecap="round" stroke-linejoin="round"/>
<path d="M1 12.9373L31.004 30.8465C33.8412 32.5402 37.3665 33.4629 41 33.4629C44.6335 33.4629 48.1588 32.5402 50.996 30.8465L81 12.9373" stroke="black" stroke-width="2" stroke-linejoin="round"/>
</svg>
