<svg width="24" height="24" viewBox="0 0 24 24" fill="none" xmlns="http://www.w3.org/2000/svg">
<g clip-path="url(#clip0_904_7)">
<path d="M12.0002 1.33325C9.8905 1.33325 7.82821 1.95884 6.07409 3.13091C4.31996 4.30298 2.95279 5.96888 2.14545 7.91796C1.33812 9.86704 1.12688 12.0118 1.53846 14.0809C1.95003 16.15 2.96594 18.0506 4.4577 19.5424C5.94946 21.0342 7.85007 22.0501 9.9192 22.4616C11.9883 22.8732 14.133 22.662 16.0821 21.8546C18.0312 21.0473 19.6971 19.6801 20.8692 17.926C22.0412 16.1719 22.6668 14.1096 22.6668 11.9999C22.6668 9.17094 21.543 6.45783 19.5426 4.45745C17.5423 2.45706 14.8291 1.33325 12.0002 1.33325ZM12.0002 21.3333C10.1542 21.3333 8.3497 20.7859 6.81485 19.7603C5.27999 18.7347 4.08371 17.2771 3.37729 15.5716C2.67087 13.8662 2.48604 11.9896 2.84617 10.1791C3.2063 8.36859 4.09521 6.70555 5.4005 5.40026C6.70579 4.09497 8.36884 3.20605 10.1793 2.84592C11.9898 2.48579 13.8664 2.67063 15.5719 3.37704C17.2773 4.08346 18.735 5.27974 19.7606 6.8146C20.7861 8.34946 21.3335 10.154 21.3335 11.9999C21.3335 14.4753 20.3502 16.8492 18.5998 18.5996C16.8495 20.3499 14.4755 21.3333 12.0002 21.3333Z" fill="#100202"/>
<path d="M12.1932 5.94672C11.4707 5.93478 10.7545 6.0821 10.0955 6.37822C9.43641 6.67434 8.85066 7.11198 8.37984 7.66005C8.31443 7.72067 8.26184 7.79379 8.2252 7.8751C8.18856 7.9564 8.1686 8.04423 8.1665 8.13338C8.16646 8.21564 8.18296 8.29706 8.21503 8.37281C8.24709 8.44856 8.29407 8.51708 8.35316 8.5743C8.41225 8.63153 8.48224 8.67628 8.55898 8.7059C8.63572 8.73552 8.71763 8.7494 8.79984 8.74672C8.97595 8.74235 9.14436 8.67357 9.27317 8.55338C9.62948 8.13584 10.072 7.80044 10.5703 7.57027C11.0687 7.3401 11.6109 7.22062 12.1598 7.22005C13.7332 7.22005 14.7132 8.23338 14.7132 9.49338V9.52672C14.7132 11.0001 13.5398 11.8201 11.6865 11.9601C11.6115 11.9629 11.5379 11.9817 11.4706 12.015C11.4032 12.0483 11.3437 12.0954 11.2959 12.1533C11.2481 12.2112 11.213 12.2786 11.193 12.351C11.173 12.4233 11.1685 12.4991 11.1798 12.5734C11.1798 12.5734 11.1798 14.1201 11.1798 14.4067C11.1964 14.5717 11.2739 14.7246 11.3972 14.8356C11.5205 14.9465 11.6807 15.0075 11.8465 15.0067H11.9198C12.0849 14.9901 12.2378 14.9126 12.3487 14.7894C12.4597 14.6661 12.5207 14.5059 12.5198 14.3401V12.9667C14.5198 12.6867 16.1398 11.6334 16.1398 9.44672V9.41338C16.1198 7.41338 14.5598 5.94672 12.1932 5.94672Z" fill="#100202"/>
<path d="M11.8534 18.3C12.3136 18.3 12.6867 17.9269 12.6867 17.4666C12.6867 17.0064 12.3136 16.6333 11.8534 16.6333C11.3931 16.6333 11.02 17.0064 11.02 17.4666C11.02 17.9269 11.3931 18.3 11.8534 18.3Z" fill="#100202"/>
</g>
<defs>
<clipPath id="clip0_904_7">
<rect width="24" height="24" fill="white"/>
</clipPath>
</defs>
</svg>
