<svg width="74" height="59" viewBox="0 0 74 59" fill="none" xmlns="http://www.w3.org/2000/svg">
<path d="M72.4654 29.0264L40.9262 2.41529L38.8122 0.630654C38.3305 0.226709 37.6791 0 37.0001 0C36.3212 0 35.6698 0.226709 35.1881 0.630654L1.53485 29.0264C1.04129 29.4414 0.651214 29.9357 0.387658 30.4801C0.124102 31.0245 -0.00759609 31.6079 0.000338326 32.196C0.0329876 34.6214 2.42455 36.5577 5.29769 36.5577H8.76667V59H65.2336V36.5577H68.7761C70.1718 36.5577 71.486 36.096 72.4736 35.2623C72.9599 34.853 73.3452 34.3665 73.6072 33.8307C73.8692 33.2949 74.0027 32.7205 74 32.1409C74 30.9695 73.4531 29.8601 72.4654 29.0264ZM41.571 54.0388H32.4292V39.9822H41.571V54.0388ZM59.3568 31.5965V54.0388H46.7949V38.3285C46.7949 36.8057 45.3339 35.5723 43.53 35.5723H30.4703C28.6664 35.5723 27.2054 36.8057 27.2054 38.3285V54.0388H14.6435V31.5965H6.80772L37.0083 6.12238L38.8938 7.71408L67.2007 31.5965H59.3568Z" fill="black"/>
</svg>
